<svg width="169" height="83" viewBox="0 0 169 83" fill="none" xmlns="http://www.w3.org/2000/svg">
<path d="M10.6879 20.1081C11.8356 13.3541 17.4748 8.27455 24.3116 7.83638L135.489 0.710935C142.059 0.289884 148.115 4.2652 150.341 10.4603L162.738 44.9529C165.945 53.8779 160.035 63.4712 150.621 64.62L19.6807 80.5984C9.86488 81.7962 1.665 73.2024 3.32172 63.4536L10.6879 20.1081Z" fill="#A7DE93"/>
<path d="M49.2973 38.63C49.8873 38.74 50.3723 39.035 50.7523 39.515C51.1323 39.995 51.3223 40.545 51.3223 41.165C51.3223 41.725 51.1823 42.22 50.9023 42.65C50.6323 43.07 50.2373 43.4 49.7173 43.64C49.1973 43.88 48.5823 44 47.8723 44H43.3573V33.53H47.6773C48.3873 33.53 48.9973 33.645 49.5073 33.875C50.0273 34.105 50.4173 34.425 50.6773 34.835C50.9473 35.245 51.0823 35.71 51.0823 36.23C51.0823 36.84 50.9173 37.35 50.5873 37.76C50.2673 38.17 49.8373 38.46 49.2973 38.63ZM45.4573 37.85H47.3773C47.8773 37.85 48.2623 37.74 48.5323 37.52C48.8023 37.29 48.9373 36.965 48.9373 36.545C48.9373 36.125 48.8023 35.8 48.5323 35.57C48.2623 35.34 47.8773 35.225 47.3773 35.225H45.4573V37.85ZM47.5723 42.29C48.0823 42.29 48.4773 42.17 48.7573 41.93C49.0473 41.69 49.1923 41.35 49.1923 40.91C49.1923 40.46 49.0423 40.11 48.7423 39.86C48.4423 39.6 48.0373 39.47 47.5273 39.47H45.4573V42.29H47.5723ZM56.6859 44.135C55.8859 44.135 55.1659 43.96 54.5259 43.61C53.8859 43.25 53.3809 42.745 53.0109 42.095C52.6509 41.445 52.4709 40.695 52.4709 39.845C52.4709 38.995 52.6559 38.245 53.0259 37.595C53.4059 36.945 53.9209 36.445 54.5709 36.095C55.2209 35.735 55.9459 35.555 56.7459 35.555C57.5459 35.555 58.2709 35.735 58.9209 36.095C59.5709 36.445 60.0809 36.945 60.4509 37.595C60.8309 38.245 61.0209 38.995 61.0209 39.845C61.0209 40.695 60.8259 41.445 60.4359 42.095C60.0559 42.745 59.5359 43.25 58.8759 43.61C58.2259 43.96 57.4959 44.135 56.6859 44.135ZM56.6859 42.305C57.0659 42.305 57.4209 42.215 57.7509 42.035C58.0909 41.845 58.3609 41.565 58.5609 41.195C58.7609 40.825 58.8609 40.375 58.8609 39.845C58.8609 39.055 58.6509 38.45 58.2309 38.03C57.8209 37.6 57.3159 37.385 56.7159 37.385C56.1159 37.385 55.6109 37.6 55.2009 38.03C54.8009 38.45 54.6009 39.055 54.6009 39.845C54.6009 40.635 54.7959 41.245 55.1859 41.675C55.5859 42.095 56.0859 42.305 56.6859 42.305ZM66.2514 44.135C65.4514 44.135 64.7314 43.96 64.0914 43.61C63.4514 43.25 62.9464 42.745 62.5764 42.095C62.2164 41.445 62.0364 40.695 62.0364 39.845C62.0364 38.995 62.2214 38.245 62.5914 37.595C62.9714 36.945 63.4864 36.445 64.1364 36.095C64.7864 35.735 65.5114 35.555 66.3114 35.555C67.1114 35.555 67.8364 35.735 68.4864 36.095C69.1364 36.445 69.6464 36.945 70.0164 37.595C70.3964 38.245 70.5864 38.995 70.5864 39.845C70.5864 40.695 70.3914 41.445 70.0014 42.095C69.6214 42.745 69.1014 43.25 68.4414 43.61C67.7914 43.96 67.0614 44.135 66.2514 44.135ZM66.2514 42.305C66.6314 42.305 66.9864 42.215 67.3164 42.035C67.6564 41.845 67.9264 41.565 68.1264 41.195C68.3264 40.825 68.4264 40.375 68.4264 39.845C68.4264 39.055 68.2164 38.45 67.7964 38.03C67.3864 37.6 66.8814 37.385 66.2814 37.385C65.6814 37.385 65.1764 37.6 64.7664 38.03C64.3664 38.45 64.1664 39.055 64.1664 39.845C64.1664 40.635 64.3614 41.245 64.7514 41.675C65.1514 42.095 65.6514 42.305 66.2514 42.305ZM77.0468 44L74.2268 40.46V44H72.1268V32.9H74.2268V39.215L77.0168 35.69H79.7468L76.0868 39.86L79.7768 44H77.0468ZM93.4158 44H91.3158L86.5608 36.815V44H84.4608V33.515H86.5608L91.3158 40.715V33.515H93.4158V44ZM99.1811 44.135C98.3811 44.135 97.6611 43.96 97.0211 43.61C96.3811 43.25 95.8761 42.745 95.5061 42.095C95.1461 41.445 94.9661 40.695 94.9661 39.845C94.9661 38.995 95.1511 38.245 95.5211 37.595C95.9011 36.945 96.4161 36.445 97.0661 36.095C97.7161 35.735 98.4411 35.555 99.2411 35.555C100.041 35.555 100.766 35.735 101.416 36.095C102.066 36.445 102.576 36.945 102.946 37.595C103.326 38.245 103.516 38.995 103.516 39.845C103.516 40.695 103.321 41.445 102.931 42.095C102.551 42.745 102.031 43.25 101.371 43.61C100.721 43.96 99.9911 44.135 99.1811 44.135ZM99.1811 42.305C99.5611 42.305 99.9161 42.215 100.246 42.035C100.586 41.845 100.856 41.565 101.056 41.195C101.256 40.825 101.356 40.375 101.356 39.845C101.356 39.055 101.146 38.45 100.726 38.03C100.316 37.6 99.8111 37.385 99.2111 37.385C98.6111 37.385 98.1061 37.6 97.6961 38.03C97.2961 38.45 97.0961 39.055 97.0961 39.845C97.0961 40.635 97.2911 41.245 97.6811 41.675C98.0811 42.095 98.5811 42.305 99.1811 42.305ZM116.576 35.69L114.146 44H111.881L110.366 38.195L108.851 44H106.571L104.126 35.69H106.256L107.726 42.02L109.316 35.69H111.536L113.096 42.005L114.566 35.69H116.576Z" fill="#303056"/>
</svg>
