<svg width="42" height="41" viewBox="0 0 42 41" fill="none" xmlns="http://www.w3.org/2000/svg">
<path d="M6.5033 17.4423C11.9124 6.69569 14.6169 1.32239 18.6216 0.325124C20.0486 -0.0302496 21.5411 -0.0302496 22.9681 0.325124C26.9728 1.32239 29.6773 6.69569 35.0864 17.4423C39.6237 26.4568 41.8924 30.9641 40.6815 34.5321C40.246 35.8154 39.5261 36.9837 38.5756 37.9497C35.9329 40.6355 30.8869 40.6355 20.7949 40.6355C10.7028 40.6355 5.65683 40.6355 3.01414 37.9497C2.06365 36.9837 1.34375 35.8154 0.908234 34.5321C-0.302639 30.9641 1.96601 26.4568 6.5033 17.4423Z" fill="url(#paint0_linear_11_472)"/>
<defs>
<linearGradient id="paint0_linear_11_472" x1="24.2474" y1="18.8186" x2="29.3973" y2="53.1623" gradientUnits="userSpaceOnUse">
<stop stop-color="#9C500A"/>
<stop offset="1" stop-color="#FF2E00"/>
</linearGradient>
</defs>
</svg>
