<svg width="28" height="28" viewBox="0 0 28 28" fill="none" xmlns="http://www.w3.org/2000/svg">
<path d="M3.68035 11.4582C6.4212 5.74252 7.79163 2.88469 9.48063 1.71522C12.1358 -0.123265 15.6526 -0.123266 18.3078 1.71522C19.9968 2.88469 21.3672 5.74252 24.108 11.4582C26.2742 15.9754 27.3573 18.2341 27.3242 20.0702C27.2723 22.9519 25.6261 25.5669 23.0502 26.8598C21.4089 27.6836 18.904 27.6836 13.8942 27.6836C8.88441 27.6836 6.37952 27.6836 4.73818 26.8598C2.16229 25.5669 0.516131 22.9519 0.464183 20.0702C0.431082 18.2341 1.51417 15.9754 3.68035 11.4582Z" fill="url(#paint0_linear_11_473)"/>
<defs>
<linearGradient id="paint0_linear_11_473" x1="13.8942" y1="-9.84131" x2="13.8942" y2="27.6836" gradientUnits="userSpaceOnUse">
<stop stop-color="#1D2B3F"/>
<stop offset="1" stop-color="#1A4A33"/>
</linearGradient>
</defs>
</svg>
